<svg width="32" height="27" viewBox="0 0 32 27" fill="none" xmlns="http://www.w3.org/2000/svg">
<path d="M30.4131 17.9129C30.4102 17.9114 30.4072 17.9097 30.4041 17.908L18.5012 11.4363V10.0042C18.5012 8.84107 17.7029 7.86084 16.6252 7.58228V6.18995C18.0505 5.89942 19.1265 4.63599 19.1265 3.12647C19.1265 1.40259 17.7239 0 16 0C14.469 0 13.1404 1.13989 12.9097 2.65112C12.8574 2.99268 13.092 3.31153 13.4333 3.36377C13.7749 3.41602 14.0938 3.1814 14.146 2.83985C14.2842 1.93384 15.0813 1.25049 16 1.25049C17.0344 1.25049 17.8757 2.09204 17.8757 3.12647C17.8757 4.16065 17.0344 5.0022 16 5.0022C15.6548 5.0022 15.3748 5.28223 15.3748 5.62744V7.58228C14.2974 7.86084 13.499 8.84107 13.499 10.0042V11.4363L1.59594 17.908C1.59301 17.9097 1.58983 17.9114 1.5869 17.9129C0.351796 18.6113 -0.258312 20.0576 0.103261 21.4304C0.398671 22.5508 1.28246 23.395 2.36913 23.6668V24.3855C2.36913 25.4197 3.21068 26.2612 4.24486 26.2612H7.24633C7.59155 26.2612 7.87158 25.9812 7.87158 25.636C7.87158 25.2908 7.59155 25.0108 7.24633 25.0108H4.24486C3.90014 25.0108 3.61962 24.7302 3.61962 24.3855V23.76H28.3804V24.3855C28.3804 24.7302 28.0999 25.0108 27.7549 25.0108H24.7537C24.4085 25.0108 24.1284 25.2908 24.1284 25.636C24.1284 25.9812 24.4085 26.2612 24.7537 26.2612H27.7549C28.7893 26.2612 29.6309 25.4197 29.6309 24.3855V23.6668C30.7175 23.395 31.6013 22.5508 31.8967 21.4302C32.2583 20.0576 31.6482 18.6113 30.4131 17.9129ZM16 8.75367C16.6897 8.75367 17.2505 9.3147 17.2505 10.0042V10.7712C16.8572 10.5999 16.4309 10.509 16 10.509C15.5691 10.509 15.1428 10.5999 14.7495 10.7712V10.0042C14.7495 9.3147 15.3105 8.75367 16 8.75367ZM30.6875 21.1116C30.4705 21.9348 29.7246 22.5095 28.8735 22.5095H3.12646C2.27538 22.5095 1.52953 21.9348 1.31249 21.1118C1.09594 20.2898 1.4602 19.4236 2.19823 19.0039L14.4329 12.3518L15.0669 12.0073C15.0698 12.0059 15.073 12.0039 15.0759 12.0022C15.3569 11.8435 15.6765 11.7593 16 11.7593C16.3235 11.7593 16.6428 11.8435 16.9241 12.0022C16.927 12.0039 16.9302 12.0059 16.9331 12.0073L29.8018 19.0039C30.5398 19.4236 30.9041 20.2896 30.6875 21.1116Z" fill="#BC943B"/>
<path d="M29.1722 20.0843L16.2984 13.0858C16.1122 12.9844 15.8876 12.9844 15.7013 13.0858L2.82774 20.0843C2.57627 20.2208 2.44981 20.5106 2.52036 20.7877C2.59092 21.0648 2.84019 21.2589 3.12632 21.2589H13.4989C13.8441 21.2589 14.1241 20.9788 14.1241 20.6336C14.1241 20.2884 13.8441 20.0084 13.4989 20.0084H5.58555L15.9999 14.3467L26.4142 20.0084H18.5011C18.1556 20.0084 17.8756 20.2884 17.8756 20.6336C17.8756 20.9788 18.1556 21.2589 18.5011 21.2589H28.8734C29.1595 21.2589 29.409 21.0648 29.4794 20.7877C29.5499 20.5106 29.4235 20.2208 29.1722 20.0843Z" fill="#BC943B"/>
<path d="M16.0002 20.0088C15.655 20.0088 15.375 20.2888 15.375 20.634C15.375 20.9792 15.655 21.2593 16.0002 21.2593C16.3455 21.2593 16.6255 20.9792 16.6255 20.634C16.6255 20.2888 16.3455 20.0088 16.0002 20.0088Z" fill="#BC943B"/>
</svg>
