<svg width="32" height="32" viewBox="0 0 32 32" fill="none" xmlns="http://www.w3.org/2000/svg">
<path d="M14.7045 21.7042C14.9484 21.4598 14.9484 21.0643 14.7045 20.8199C14.4603 20.5763 14.0648 20.5763 13.8204 20.8199C13.5768 21.0643 13.5768 21.4598 13.8204 21.7042C14.0648 21.9479 14.4603 21.9479 14.7045 21.7042Z" fill="#BC943B"/>
<path d="M11.7471 6.87306C11.7471 10.6629 14.8303 13.7464 18.6201 13.7464C22.4099 13.7464 25.4932 10.6629 25.4932 6.87306C25.4932 3.08326 22.4099 0 18.6201 0C14.8303 0 11.7471 3.08326 11.7471 6.87306ZM24.2437 6.87306C24.2437 9.97389 21.721 12.4966 18.6201 12.4966C15.5193 12.4966 12.9966 9.97389 12.9966 6.87306C12.9966 3.77247 15.5193 1.24976 18.6201 1.24976C21.721 1.24976 24.2437 3.77247 24.2437 6.87306Z" fill="#BC943B"/>
<path d="M7.19697 31.8153C7.43916 32.0594 7.83345 32.0621 8.07881 31.8204L11.1081 28.836C11.6228 28.3214 11.7793 27.5594 11.5529 26.8971L12.2045 26.2686C12.5554 25.9298 13.0173 25.743 13.5056 25.743H21.812C23.2856 25.743 24.6784 25.1771 25.7344 24.1495C25.7778 24.1073 25.4045 24.547 31.4011 17.38C32.2905 16.3277 32.1575 14.7476 31.1042 13.8572C30.0576 12.9752 28.4897 13.1019 27.5979 14.1361L23.9109 17.9256C23.4453 17.3526 22.7353 16.9954 21.9682 16.9954H15.0007C14.0092 16.5806 12.9572 16.3707 11.8718 16.3707C8.86299 16.3707 6.23579 17.7603 4.82587 20.3658C4.23188 20.2533 3.60541 20.4329 3.15473 20.8836L0.182313 23.8648C-0.0603635 24.1082 -0.0608517 24.502 0.181336 24.7462L7.19697 31.8153ZM11.8715 17.6202C12.8286 17.6202 13.7539 17.8128 14.6223 18.1927C14.7014 18.2274 14.7866 18.2452 14.8728 18.2452H21.9682C22.6457 18.2452 23.218 18.7977 23.218 19.4947C23.218 20.1839 22.6574 20.7445 21.9682 20.7445H16.8703C16.5254 20.7445 16.2456 21.0242 16.2456 21.3692C16.2456 21.7144 16.5254 21.994 16.8703 21.994H21.9682C23.3464 21.994 24.4675 20.8729 24.4675 19.4947C24.4675 19.3848 24.4597 19.276 24.4455 19.168C28.0122 15.5018 28.5151 14.9866 28.5366 14.961C28.9819 14.4354 29.7724 14.3687 30.2983 14.8121C30.8247 15.2571 30.8913 16.0472 30.4448 16.5758L24.8406 23.2755C24.0222 24.0611 22.9477 24.4935 21.812 24.4935H13.5056C12.6916 24.4935 11.9211 24.8048 11.3366 25.3695L10.8056 25.8819L5.91059 20.9871C7.05464 18.8409 9.20137 17.6202 11.8715 17.6202ZM4.03901 21.7667C4.24506 21.5606 4.56147 21.5235 4.81269 21.6788C4.92085 21.7447 4.6103 21.462 10.2246 27.0684C10.4743 27.3182 10.4609 27.7162 10.228 27.9491L7.64546 30.4933L1.50605 24.307L4.03901 21.7667Z" fill="#BC943B"/>
<path d="M17.8708 3.12451V3.85669C17.1435 4.1145 16.621 4.80909 16.621 5.62378C16.621 6.65723 17.4618 7.4983 18.4955 7.4983C18.84 7.4983 19.1203 7.77857 19.1203 8.12306C19.1203 8.46754 18.84 8.74781 18.4955 8.74781C18.2287 8.74781 17.9403 8.58009 17.6842 8.27516C17.4621 8.01099 17.068 7.97706 16.8039 8.19898C16.5397 8.42115 16.5055 8.8152 16.7277 9.07936C17.0617 9.47657 17.4545 9.75343 17.8708 9.89308V10.6223C17.8708 10.9675 18.1505 11.2471 18.4955 11.2471C18.8405 11.2471 19.1203 10.9675 19.1203 10.6223V9.89015C19.8476 9.63209 20.37 8.93751 20.37 8.12306C20.37 7.08936 19.5292 6.24854 18.4955 6.24854C18.151 6.24854 17.8708 5.96827 17.8708 5.62378C17.8708 5.2793 18.151 4.99878 18.4955 4.99878C18.7169 4.99878 18.9506 5.11182 19.1713 5.32544C19.4193 5.56543 19.8148 5.55884 20.0548 5.31104C20.2948 5.06299 20.2882 4.66748 20.0404 4.42749C19.7233 4.12061 19.4059 3.94702 19.1203 3.8523V3.12451C19.1203 2.7793 18.8405 2.49951 18.4955 2.49951C18.1505 2.49951 17.8708 2.7793 17.8708 3.12451Z" fill="#BC943B"/>
</svg>
