<svg width="32" height="27" viewBox="0 0 32 27" fill="none" xmlns="http://www.w3.org/2000/svg">
<path d="M30.5872 0H1.41275C0.63375 0 0 0.63375 0 1.41275V24.9803C0 25.7593 0.63375 26.393 1.41275 26.393H30.5872C31.3662 26.393 32 25.7593 32 24.9803V1.41275C32 0.63375 31.3662 0 30.5872 0ZM30.5872 24.9803L1.41281 24.9812C1.41281 24.9812 1.41275 24.9809 1.41275 24.9803V1.41275H30.5872V24.9803Z" fill="#BC943B"/>
<path d="M27.9357 3.35791H4.0638C3.67373 3.35791 3.35742 3.67422 3.35742 4.06429V19.6768C3.35742 20.0668 3.67373 20.3831 4.0638 20.3831H27.9357C28.3257 20.3831 28.642 20.0668 28.642 19.6767V4.06429C28.6421 3.67422 28.3258 3.35791 27.9357 3.35791ZM4.77017 4.77066H27.2293V16.729L22.7775 12.2778C22.5018 12.002 22.0545 12.002 21.7786 12.2778L19.0648 14.9916L12.8423 8.7691C12.5665 8.49347 12.1192 8.49335 11.8434 8.7691L4.77023 15.8416V4.77066H4.77017ZM4.77017 18.9703V17.8393L12.3428 10.2675L21.0455 18.9703H4.77017ZM27.2294 18.9703H23.0436V18.9703L20.0639 15.9905L22.2782 13.7762L27.067 18.5644C27.1163 18.6137 27.1712 18.6538 27.2294 18.6854V18.9703H27.2294Z" fill="#BC943B"/>
<path d="M19.0211 6.11084C17.5486 6.11084 16.3506 7.30884 16.3506 8.7814C16.3506 10.254 17.5486 11.452 19.0211 11.452C20.4937 11.452 21.6917 10.254 21.6917 8.7814C21.6917 7.30884 20.4936 6.11084 19.0211 6.11084ZM19.0211 10.0392C18.3275 10.0392 17.7633 9.47503 17.7633 8.7814C17.7633 8.08784 18.3276 7.52365 19.0211 7.52365C19.7146 7.52365 20.2789 8.08784 20.2789 8.7814C20.2789 9.47503 19.7147 10.0392 19.0211 10.0392Z" fill="#BC943B"/>
<path d="M10.208 21.9751H4.0638C3.67373 21.9751 3.35742 22.2914 3.35742 22.6815C3.35742 23.0716 3.67373 23.3878 4.0638 23.3878H10.208C10.5982 23.3878 10.9144 23.0715 10.9144 22.6815C10.9144 22.2914 10.5982 21.9751 10.208 21.9751Z" fill="#BC943B"/>
<path d="M15.0425 21.9751H13.431C13.0409 21.9751 12.7246 22.2914 12.7246 22.6815C12.7246 23.0715 13.0409 23.3878 13.431 23.3878H15.0425C15.4327 23.3878 15.7489 23.0715 15.7489 22.6815C15.7489 22.2914 15.4326 21.9751 15.0425 21.9751Z" fill="#BC943B"/>
</svg>
